<?xml version="1.0" encoding="UTF-8"?>
<svg version="1.1" xmlns="http://www.w3.org/2000/svg" width="64" height="64">
<path d="M0 0 C0.99 0.66 1.98 1.32 3 2 C3.33 1.67 3.66 1.34 4 1 C6.51136104 0.90024968 8.98903415 0.86117817 11.5 0.875 C12.20253906 0.87113281 12.90507813 0.86726562 13.62890625 0.86328125 C18.87338622 0.87338622 18.87338622 0.87338622 20 2 C20.0883967 4.3756852 20.11530305 6.72208674 20.09765625 9.09765625 C20.0962413 9.80651474 20.09482635 10.51537323 20.09336853 11.24571228 C20.08775443 13.51801712 20.07519963 15.79022475 20.0625 18.0625 C20.05748681 19.59960796 20.05292359 21.13671745 20.04882812 22.67382812 C20.03778042 26.44925642 20.02050641 30.22461171 20 34 C21.32 34.33 22.64 34.66 24 35 C24.98629017 38.13819599 25.21925401 39.52687293 23.8125 42.5625 C22.03870586 44.9479473 20.17344431 46.9764484 18 49 C18.33 49.66 18.66 50.32 19 51 C15.00958084 57.55568862 15.00958084 57.55568862 11 59 C8.4921875 59.01171875 8.4921875 59.01171875 5.875 58.6875 C5.00617187 58.58824219 4.13734375 58.48898438 3.2421875 58.38671875 C1 58 1 58 -1 57 C-1 57.66 -1 58.32 -1 59 C-2.32 59 -3.64 59 -5 59 C-4.875 56.8125 -4.875 56.8125 -4 54 C-2.4840625 52.824375 -2.4840625 52.824375 -0.9375 51.625 C2.41181723 49.22798629 2.41181723 49.22798629 2.375 45.1875 C2.189375 43.6096875 2.189375 43.6096875 2 42 C1.67 42 1.34 42 1 42 C1 42.66 1 43.32 1 44 C0.8125 46.4375 0.8125 46.4375 0 49 C-3.31964326 51.60188256 -4.69316041 52 -9 52 C-9.66 53.98 -10.32 55.96 -11 58 C-13.31 58 -15.62 58 -18 58 C-17.67 56.02 -17.34 54.04 -17 52 C-21.455 52.495 -21.455 52.495 -26 53 C-26 52.01 -26 51.02 -26 50 C-23.84765625 48.4296875 -23.84765625 48.4296875 -21.0625 46.875 C-17.83826582 45.20067795 -17.83826582 45.20067795 -15 43 C-17.64 42.67 -20.28 42.34 -23 42 C-23 32.1 -23 22.2 -23 12 C-23.66 12 -24.32 12 -25 12 C-24.99476318 12.87325928 -24.98952637 13.74651855 -24.98413086 14.64624023 C-24.96712249 17.87589273 -24.95456631 21.10552245 -24.94506836 24.33520508 C-24.9400292 25.73495228 -24.93319784 27.1346942 -24.92456055 28.53442383 C-24.9124768 30.54245777 -24.90730193 32.55052957 -24.90234375 34.55859375 C-24.89710693 35.76829834 -24.89187012 36.97800293 -24.88647461 38.22436523 C-25 41 -25 41 -26 42 C-29.5 42.125 -29.5 42.125 -33 42 C-34 41 -34 41 -34.11352539 38.22436523 C-34.10828857 37.01466064 -34.10305176 35.80495605 -34.09765625 34.55859375 C-34.09282227 32.60083008 -34.09282227 32.60083008 -34.08789062 30.60351562 C-34.07953401 29.2148431 -34.07106905 27.82617123 -34.0625 26.4375 C-34.05748666 25.04492344 -34.05292347 23.65234519 -34.04882812 22.25976562 C-34.03699434 18.8398013 -34.0205088 15.41992156 -34 12 C-34.99 12 -35.98 12 -37 12 C-37 8.37 -37 4.74 -37 1 C-28.42 1 -19.84 1 -11 1 C-10.67 1.66 -10.34 2.32 -10 3 C-9.4740625 2.2575 -9.4740625 2.2575 -8.9375 1.5 C-5.9984205 -0.77541639 -3.60573045 -0.32194022 0 0 Z M-14 12 C-14 13.32 -14 14.64 -14 16 C-13.34 16 -12.68 16 -12 16 C-12 14.68 -12 13.36 -12 12 C-12.66 12 -13.32 12 -14 12 Z M-2 20 C-2 20.99 -2 21.98 -2 23 C-0.02 23 1.96 23 4 23 C4 22.01 4 21.02 4 20 C2.02 20 0.04 20 -2 20 Z M-14 26 C-14 27.65 -14 29.3 -14 31 C-13.01 30.67 -12.02 30.34 -11 30 C-11.33 28.68 -11.66 27.36 -12 26 C-12.66 26 -13.32 26 -14 26 Z M9 42 C8.34 43.32 7.68 44.64 7 46 C8.65 45.01 10.3 44.02 12 43 C11.01 42.67 10.02 42.34 9 42 Z M7 52 C7 52.66 7 53.32 7 54 C8.65 54 10.3 54 12 54 C12.66 52.68 13.32 51.36 14 50 C11.3534665 50 9.4191837 50.98139634 7 52 Z " fill="#0408F2" transform="translate(38,3)"/>
<path d="M0 0 C8.58 0 17.16 0 26 0 C26.33 1.32 26.66 2.64 27 4 C27.515625 3.319375 28.03125 2.63875 28.5625 1.9375 C31 -0 31 -0 34.625 0.0625 C38 1 38 1 40 4 C40.1953125 7.13671875 40.1953125 7.13671875 40.125 10.6875 C40.10695312 11.86699219 40.08890625 13.04648437 40.0703125 14.26171875 C40.04710937 15.16535156 40.02390625 16.06898437 40 17 C38.02 17 36.04 17 34 17 C34.10054687 18.88332031 34.10054687 18.88332031 34.203125 20.8046875 C34.49998737 34.96502241 34.49998737 34.96502241 30.3671875 39.41796875 C27.47546946 41.96985195 24.31312368 44.02918524 21 46 C20.01 46.66 19.02 47.32 18 48 C16.515 47.505 16.515 47.505 15 47 C17.31 45.35 19.62 43.7 22 42 C19.36 41.67 16.72 41.34 14 41 C14 31.1 14 21.2 14 11 C13.34 11 12.68 11 12 11 C12.00523682 11.87325928 12.01047363 12.74651855 12.01586914 13.64624023 C12.03287751 16.87589273 12.04543369 20.10552245 12.05493164 23.33520508 C12.0599708 24.73495228 12.06680216 26.1346942 12.07543945 27.53442383 C12.0875232 29.54245777 12.09269807 31.55052957 12.09765625 33.55859375 C12.10289307 34.76829834 12.10812988 35.97800293 12.11352539 37.22436523 C12 40 12 40 11 41 C7.5 41.125 7.5 41.125 4 41 C3 40 3 40 2.88647461 37.22436523 C2.89171143 36.01466064 2.89694824 34.80495605 2.90234375 33.55859375 C2.90717773 31.60083008 2.90717773 31.60083008 2.91210938 29.60351562 C2.92046599 28.2148431 2.92893095 26.82617123 2.9375 25.4375 C2.94251334 24.04492344 2.94707653 22.65234519 2.95117188 21.25976562 C2.96300566 17.8398013 2.9794912 14.41992156 3 11 C2.01 11 1.02 11 0 11 C0 7.37 0 3.74 0 0 Z M23 11 C23 12.32 23 13.64 23 15 C23.66 15 24.32 15 25 15 C25 13.68 25 12.36 25 11 C24.34 11 23.68 11 23 11 Z M23 25 C23 26.65 23 28.3 23 30 C23.99 29.67 24.98 29.34 26 29 C25.67 27.68 25.34 26.36 25 25 C24.34 25 23.68 25 23 25 Z " fill="#1900E5" transform="translate(1,4)"/>
<path d="M0 0 C4.29 0 8.58 0 13 0 C13 10.56 13 21.12 13 32 C10.69 32.66 8.38 33.32 6 34 C3.97843296 34.95564988 1.97033426 35.94274747 0 37 C0 35.35 0 33.7 0 32 C1.65 32 3.3 32 5 32 C4.67 31.34 4.34 30.68 4 30 C2.68 29.67 1.36 29.34 0 29 C0 19.43 0 9.86 0 0 Z " fill="#FE0000" transform="translate(43,5)"/>
<path d="M0 0 C3.5625 0.25 3.5625 0.25 6.5625 2.25 C6.8925 1.92 7.2225 1.59 7.5625 1.25 C10.07386104 1.15024968 12.55153415 1.11117817 15.0625 1.125 C15.76503906 1.12113281 16.46757813 1.11726562 17.19140625 1.11328125 C22.43588622 1.12338622 22.43588622 1.12338622 23.5625 2.25 C23.6508967 4.6256852 23.67780305 6.97208674 23.66015625 9.34765625 C23.6587413 10.05651474 23.65732635 10.76537323 23.65586853 11.49571228 C23.65025443 13.76801712 23.63769963 16.04022475 23.625 18.3125 C23.61998681 19.84960796 23.61542359 21.38671745 23.61132812 22.92382812 C23.60028042 26.69925642 23.58300641 30.47461171 23.5625 34.25 C24.8825 34.58 26.2025 34.91 27.5625 35.25 C28.54879017 38.38819599 28.78175401 39.77687293 27.375 42.8125 C25.60120586 45.1979473 23.73594431 47.2264484 21.5625 49.25 C21.8925 49.91 22.2225 50.57 22.5625 51.25 C21.9025 51.91 21.2425 52.57 20.5625 53.25 C20.5625 52.26 20.5625 51.27 20.5625 50.25 C19.9025 50.25 19.2425 50.25 18.5625 50.25 C18.315 51.054375 18.0675 51.85875 17.8125 52.6875 C16.5625 55.25 16.5625 55.25 14.875 56.1875 C11.53741616 56.27770497 8.71290449 55.27993993 5.5625 54.25 C7.98601683 51.82648317 10.11574555 51.15815126 13.3125 49.9375 C18.25477743 47.90837769 21.97030133 46.23054447 25.5625 42.25 C26.52548724 39.07437198 26.52548724 39.07437198 26.5625 36.25 C23.9225 35.92 21.2825 35.59 18.5625 35.25 C20.0475 34.755 20.0475 34.755 21.5625 34.25 C21.5625 23.69 21.5625 13.13 21.5625 2.25 C19.5825 2.25 17.6025 2.25 15.5625 2.25 C15.5625 6.87 15.5625 11.49 15.5625 16.25 C15.2325 16.25 14.9025 16.25 14.5625 16.25 C14.5625 11.63 14.5625 7.01 14.5625 2.25 C12.5825 2.25 10.6025 2.25 8.5625 2.25 C8.5625 11.82 8.5625 21.39 8.5625 31.25 C9.8825 31.58 11.2025 31.91 12.5625 32.25 C7.6125 32.745 7.6125 32.745 2.5625 33.25 C2.5625 33.91 2.5625 34.57 2.5625 35.25 C1.0775 35.745 1.0775 35.745 -0.4375 36.25 C-0.4375 27.01 -0.4375 17.77 -0.4375 8.25 C-0.1075 8.25 0.2225 8.25 0.5625 8.25 C0.5625 11.55 0.5625 14.85 0.5625 18.25 C2.5425 18.25 4.5225 18.25 6.5625 18.25 C6.42140014 16.14551062 6.27445825 14.0414123 6.125 11.9375 C6.04378906 10.76574219 5.96257813 9.59398437 5.87890625 8.38671875 C5.6757629 5.22409042 5.6757629 5.22409042 4.5625 2.25 C-0.57475982 1.76510163 -0.57475982 1.76510163 -4.875 4.25 C-5.390625 4.91 -5.90625 5.57 -6.4375 6.25 C-5.55456679 1.83533396 -4.79203966 0.34851198 0 0 Z M1.5625 20.25 C1.5625 21.24 1.5625 22.23 1.5625 23.25 C3.5425 23.25 5.5225 23.25 7.5625 23.25 C7.5625 22.26 7.5625 21.27 7.5625 20.25 C5.5825 20.25 3.6025 20.25 1.5625 20.25 Z M10.5625 52.25 C10.5625 52.91 10.5625 53.57 10.5625 54.25 C12.2125 54.25 13.8625 54.25 15.5625 54.25 C16.2225 52.93 16.8825 51.61 17.5625 50.25 C14.9159665 50.25 12.9816837 51.23139634 10.5625 52.25 Z " fill="#1A00E4" transform="translate(34.4375,2.75)"/>
<path d="M0 0 C3.3 0 6.6 0 10 0 C10 2.97 10 5.94 10 9 C8.68 9 7.36 9 6 9 C6 10.98 6 12.96 6 15 C6.99 15 7.98 15 9 15 C9 17.31 9 19.62 9 22 C8.01 22 7.02 22 6 22 C6 24.64 6 27.28 6 30 C7.32 30 8.64 30 10 30 C10 32.64 10 35.28 10 38 C6.7 38 3.4 38 0 38 C0 25.46 0 12.92 0 0 Z " fill="#FB0003" transform="translate(16,5)"/>
<path d="M0 0 C3.375 1 3.375 1 5.375 4 C5.5703125 7.13671875 5.5703125 7.13671875 5.5 10.6875 C5.48195313 11.86699219 5.46390625 13.04648437 5.4453125 14.26171875 C5.41050781 15.61716797 5.41050781 15.61716797 5.375 17 C3.395 17 1.415 17 -0.625 17 C-0.955 22.94 -1.285 28.88 -1.625 35 C-3.275 35.66 -4.925 36.32 -6.625 37 C-9.28868202 34.33631798 -7.89918842 26.7810737 -7.92016602 22.95458984 C-7.93732337 20.77246468 -7.98118324 18.5918769 -8.02539062 16.41015625 C-8.03552243 15.01824031 -8.04403701 13.62631148 -8.05078125 12.234375 C-8.06536377 10.96819336 -8.07994629 9.70201172 -8.0949707 8.39746094 C-7.34873343 3.00284385 -5.64139268 0 0 0 Z " fill="#F90005" transform="translate(35.625,4)"/>
<path d="M0 0 C3.96 0 7.92 0 12 0 C12 2.64 12 5.28 12 8 C11.01 8.495 11.01 8.495 10 9 C9.67 18.57 9.34 28.14 9 38 C7.02 38 5.04 38 3 38 C3 28.43 3 18.86 3 9 C2.01 9 1.02 9 0 9 C0 6.03 0 3.06 0 0 Z " fill="#F50009" transform="translate(2,5)"/>
<path d="M0 0 C1.22589844 0.01353516 1.22589844 0.01353516 2.4765625 0.02734375 C3.10304687 0.03894531 3.72953125 0.05054688 4.375 0.0625 C4.375 0.7225 4.375 1.3825 4.375 2.0625 C1.075 2.3925 -2.225 2.7225 -5.625 3.0625 C-5.66625 3.7225 -5.7075 4.3825 -5.75 5.0625 C-7.0301657 9.45163955 -9.77309367 12.54776529 -12.625 16.0625 C-9.75775314 15.48905063 -8.7635485 15.2010485 -6.625 13.0625 C-6.875 14.9375 -6.875 14.9375 -7.625 17.0625 C-10.56495019 19.09005186 -11.90204003 19.0625 -15.625 19.0625 C-16.285 21.0425 -16.945 23.0225 -17.625 25.0625 C-19.275 25.0625 -20.925 25.0625 -22.625 25.0625 C-21.965 23.4125 -21.305 21.7625 -20.625 20.0625 C-23.04630331 18.85184835 -24.10793659 19.11647467 -26.75 19.5 C-28.02875 19.685625 -29.3075 19.87125 -30.625 20.0625 C-28.80431069 17.92051258 -27.19894587 16.83587546 -24.6875 15.5 C-20.23128721 13.08063984 -16.51308813 9.73427754 -12.71313477 6.41577148 C-8.82720009 3.0625 -8.82720009 3.0625 -6.625 3.0625 C-6.625 2.4025 -6.625 1.7425 -6.625 1.0625 C-4.21954362 -0.14022819 -2.67503047 -0.03821472 0 0 Z " fill="#00DB22" transform="translate(43.625,34.9375)"/>
<path d="M0 0 C5.75 -0.125 5.75 -0.125 8 1 C8.4375 3.625 8.4375 3.625 8 7 C3.53210914 13.12607716 -4.17520522 15.46731754 -11 18 C-8.69 18.66 -6.38 19.32 -4 20 C-2.29159719 18.36587557 -1.06546953 17.13093906 0 15 C0.66 15 1.32 15 2 15 C2.36585366 19.51219512 2.36585366 19.51219512 0.78125 21.625 C-1.43969138 23.33941089 -2.91049803 23.48626797 -5.6875 23.6875 C-6.89986328 23.78611328 -6.89986328 23.78611328 -8.13671875 23.88671875 C-9.05904297 23.94279297 -9.05904297 23.94279297 -10 24 C-10 23.34 -10 22.68 -10 22 C-12.31 21.67 -14.62 21.34 -17 21 C-17 21.66 -17 22.32 -17 23 C-17.66 23 -18.32 23 -19 23 C-17.49028993 18.7728118 -14.64759999 17.37886956 -11 15 C-11 14.34 -11 13.68 -11 13 C-10.28972656 12.66226563 -9.57945313 12.32453125 -8.84765625 11.9765625 C-7.46900391 11.30753906 -7.46900391 11.30753906 -6.0625 10.625 C-5.14597656 10.18414062 -4.22945312 9.74328125 -3.28515625 9.2890625 C-0.87096198 8.20800838 -0.87096198 8.20800838 0 6 C0.99 6.33 1.98 6.66 3 7 C3.33 5.35 3.66 3.7 4 2 C2.68 1.34 1.36 0.68 0 0 Z " fill="#00C637" transform="translate(53,38)"/>
<path d="M0 0 C0.33 0 0.66 0 1 0 C1 3.63 1 7.26 1 11 C3.31 11.33 5.62 11.66 8 12 C8.6875 13.8125 8.6875 13.8125 9 16 C7.5625 17.75 7.5625 17.75 6 19 C6 18.34 6 17.68 6 17 C5.34 17 4.68 17 4 17 C3.814375 17.598125 3.62875 18.19625 3.4375 18.8125 C1.29482599 22.07309089 -1.39625404 22.73552773 -5 24 C-5.99 24 -6.98 24 -8 24 C-8.51385563 21.17379401 -8.34138082 19.50996394 -6.734375 17.109375 C-5.21930562 15.3001174 -3.75564125 13.57825781 -2 12 C-1.34 12 -0.68 12 0 12 C0 8.04 0 4.08 0 0 Z M-2 18 C-2.66 19.32 -3.32 20.64 -4 22 C-2.35 21.01 -0.7 20.02 1 19 C0.01 18.67 -0.98 18.34 -2 18 Z " fill="#0B7B77" transform="translate(49,27)"/>
<path d="M0 0 C2.97 0.495 2.97 0.495 6 1 C6.33 9.25 6.66 17.5 7 26 C8.65 25.67 10.3 25.34 12 25 C7.25 29.875 7.25 29.875 5 31 C3.12137125 30.91255632 1.24544819 30.75824458 -0.625 30.5625 C-1.62789062 30.46066406 -2.63078125 30.35882813 -3.6640625 30.25390625 C-4.43492188 30.17011719 -5.20578125 30.08632813 -6 30 C-6 29.67 -6 29.34 -6 29 C-2.7 29 0.6 29 4 29 C4 26.36 4 23.72 4 21 C2.68 21 1.36 21 0 21 C0 18.36 0 15.72 0 13 C0.99 13 1.98 13 3 13 C3 10.69 3 8.38 3 6 C2.01 6 1.02 6 0 6 C0 4.02 0 2.04 0 0 Z M2 1 C2 2.32 2 3.64 2 5 C2.66 5 3.32 5 4 5 C4 3.68 4 2.36 4 1 C3.34 1 2.68 1 2 1 Z M2 15 C2 16.65 2 18.3 2 20 C2.99 19.67 3.98 19.34 5 19 C4.67 17.68 4.34 16.36 4 15 C3.34 15 2.68 15 2 15 Z " fill="#1B00E3" transform="translate(22,14)"/>
<path d="M0 0 C0.33 0 0.66 0 1 0 C1 10.56 1 21.12 1 32 C2.32 32.33 3.64 32.66 5 33 C5.98629017 36.13819599 6.21925401 37.52687293 4.8125 40.5625 C3.03870586 42.9479473 1.17344431 44.9764484 -1 47 C-0.67 47.66 -0.34 48.32 0 49 C-0.66 49.66 -1.32 50.32 -2 51 C-2 50.01 -2 49.02 -2 48 C-2.66 48 -3.32 48 -4 48 C-4.2475 48.804375 -4.495 49.60875 -4.75 50.4375 C-6 53 -6 53 -7.6875 53.9375 C-11.02508384 54.02770497 -13.84959551 53.02993993 -17 52 C-14.57648317 49.57648317 -12.44675445 48.90815126 -9.25 47.6875 C-4.30772257 45.65837769 -0.59219867 43.98054447 3 40 C3.96298724 36.82437198 3.96298724 36.82437198 4 34 C1.36 33.67 -1.28 33.34 -4 33 C-2.02 32.505 -2.02 32.505 0 32 C0 21.44 0 10.88 0 0 Z M-12 50 C-12 50.66 -12 51.32 -12 52 C-10.35 52 -8.7 52 -7 52 C-6.34 50.68 -5.68 49.36 -5 48 C-7.6465335 48 -9.5808163 48.98139634 -12 50 Z " fill="#0009F5" transform="translate(57,5)"/>
<path d="M0 0 C1.22589844 0.01353516 1.22589844 0.01353516 2.4765625 0.02734375 C3.41628906 0.04474609 3.41628906 0.04474609 4.375 0.0625 C4.375 0.7225 4.375 1.3825 4.375 2.0625 C1.075 2.3925 -2.225 2.7225 -5.625 3.0625 C-5.7075 3.84625 -5.79 4.63 -5.875 5.4375 C-6.1225 6.30375 -6.37 7.17 -6.625 8.0625 C-7.95205024 8.74158754 -9.28640275 9.40646675 -10.625 10.0625 C-11.80910195 11.23335697 -12.95475051 12.44415993 -14.0625 13.6875 C-17.25126266 17.00683699 -17.25126266 17.00683699 -20.5625 17.5 C-21.5834375 17.2834375 -21.5834375 17.2834375 -22.625 17.0625 C-22.955 16.4025 -23.285 15.7425 -23.625 15.0625 C-23.04492188 14.61519531 -22.46484375 14.16789062 -21.8671875 13.70703125 C-18.24980648 10.90744099 -14.65011702 8.11505143 -11.1875 5.125 C-8.625 3.0625 -8.625 3.0625 -6.625 3.0625 C-6.625 2.4025 -6.625 1.7425 -6.625 1.0625 C-4.21954362 -0.14022819 -2.67503047 -0.03821472 0 0 Z " fill="#00D22B" transform="translate(43.625,34.9375)"/>
<path d="M0 0 C0.99 0.66 1.98 1.32 3 2 C2.8125 4.3125 2.8125 4.3125 2 7 C-1.31964326 9.60188256 -2.69316041 10 -7 10 C-7.66 11.98 -8.32 13.96 -9 16 C-11.31 16 -13.62 16 -16 16 C-15.67 14.02 -15.34 12.04 -15 10 C-19.455 10.495 -19.455 10.495 -24 11 C-24 10.01 -24 9.02 -24 8 C-22.68 7.67 -21.36 7.34 -20 7 C-20.66 7.66 -21.32 8.32 -22 9 C-20.72125 8.79375 -19.4425 8.5875 -18.125 8.375 C-15.9453125 8.0234375 -15.9453125 8.0234375 -14 8 C-13.34 8.66 -12.68 9.32 -12 10 C-13.485 12.475 -13.485 12.475 -15 15 C-13.35 15 -11.7 15 -10 15 C-9.835 14.071875 -9.67 13.14375 -9.5 12.1875 C-8 9 -8 9 -6.12109375 8.07421875 C-4.68721255 7.61506896 -3.23814635 7.20047775 -1.77734375 6.8359375 C-1.19082031 6.56007813 -0.60429688 6.28421875 0 6 C0.80591867 3.9770759 0.80591867 3.9770759 1 2 C0.34 1.67 -0.32 1.34 -1 1 C-0.67 0.67 -0.34 0.34 0 0 Z " fill="#000AF4" transform="translate(36,45)"/>
<path d="M0 0 C0.66 0 1.32 0 2 0 C2.36585366 4.51219512 2.36585366 4.51219512 0.78125 6.625 C-1.43969138 8.33941089 -2.91049803 8.48626797 -5.6875 8.6875 C-6.89986328 8.78611328 -6.89986328 8.78611328 -8.13671875 8.88671875 C-8.75160156 8.92410156 -9.36648437 8.96148437 -10 9 C-10 8.34 -10 7.68 -10 7 C-10.639375 6.87625 -11.27875 6.7525 -11.9375 6.625 C-12.618125 6.41875 -13.29875 6.2125 -14 6 C-14.33 5.34 -14.66 4.68 -15 4 C-14.24074219 4.10699219 -13.48148438 4.21398438 -12.69921875 4.32421875 C-11.20841797 4.50404297 -11.20841797 4.50404297 -9.6875 4.6875 C-8.70136719 4.81511719 -7.71523438 4.94273438 -6.69921875 5.07421875 C-3.98452624 5.26110188 -3.98452624 5.26110188 -2.20703125 3.64453125 C-0.93153715 2.00365959 -0.93153715 2.00365959 0 0 Z " fill="#009964" transform="translate(53,53)"/>
<path d="M0 0 C1.98 0 3.96 0 6 0 C6 2.64 6 5.28 6 8 C4.02 8.66 2.04 9.32 0 10 C0 6.7 0 3.4 0 0 Z " fill="#F50009" transform="translate(35,27)"/>
<path d="M0 0 C5.75 -0.125 5.75 -0.125 8 1 C8.4375 3.625 8.4375 3.625 8 7 C6.00453183 9.49021235 3.83536579 11.51892478 1 13 C-1.234375 12.66015625 -1.234375 12.66015625 -3 12 C-2.030625 11.278125 -1.06125 10.55625 -0.0625 9.8125 C2.29913506 7.86762407 2.93412331 7.2117465 3.875 4.1875 C3.91625 3.465625 3.9575 2.74375 4 2 C2.68 1.34 1.36 0.68 0 0 Z " fill="#00EF0E" transform="translate(53,38)"/>
<path d="M0 0 C0.33 0 0.66 0 1 0 C1.33 1.98 1.66 3.96 2 6 C3.65 5.67 5.3 5.34 7 5 C2.25 9.875 2.25 9.875 0 11 C-1.87862875 10.91255632 -3.75455181 10.75824458 -5.625 10.5625 C-6.62789062 10.46066406 -7.63078125 10.35882813 -8.6640625 10.25390625 C-9.43492188 10.17011719 -10.20578125 10.08632813 -11 10 C-11 9.67 -11 9.34 -11 9 C-7.7 9 -4.4 9 -1 9 C-1.020625 7.700625 -1.04125 6.40125 -1.0625 5.0625 C-1.08399454 3.70834367 -1.07148199 2.35243917 -1 1 C-0.67 0.67 -0.34 0.34 0 0 Z " fill="#2D08C9" transform="translate(27,34)"/>
<path d="M0 0 C0.99 0 1.98 0 3 0 C1.8141763 3.37503669 0.72426311 5.64722731 -2 8 C-1.67 8.66 -1.34 9.32 -1 10 C-1.99 11.32 -2.98 12.64 -4 14 C-5.32 13.67 -6.64 13.34 -8 13 C-7.50628906 12.39671875 -7.01257813 11.7934375 -6.50390625 11.171875 C-5.86324219 10.37265625 -5.22257812 9.5734375 -4.5625 8.75 C-3.92441406 7.96109375 -3.28632812 7.1721875 -2.62890625 6.359375 C-1.09494695 4.13752508 -0.42869754 2.63256518 0 0 Z " fill="#2024BA" transform="translate(38,38)"/>
<path d="M0 0 C0 0.66 0 1.32 0 2 C0.99 2 1.98 2 3 2 C2.01958581 4.45103548 1.3486182 5.76758786 -0.875 7.25 C-3 8 -3 8 -7 8 C-4.18918919 0 -4.18918919 0 0 0 Z M-3 3 C-3.66 4.32 -4.32 5.64 -5 7 C-3.35 6.01 -1.7 5.02 0 4 C-0.99 3.67 -1.98 3.34 -3 3 Z " fill="#020FEC" transform="translate(50,42)"/>
<path d="M0 0 C0 3.86817267 -1.08530516 4.54640451 -3.75 7.25 C-4.79414063 8.34054688 -4.79414063 8.34054688 -5.859375 9.453125 C-6.56578125 9.96359375 -7.2721875 10.4740625 -8 11 C-9.32 10.67 -10.64 10.34 -12 10 C-8.04 6.7 -4.08 3.4 0 0 Z " fill="#0318E2" transform="translate(34,41)"/>
<path d="M0 0 C-0.62759865 2.92879371 -1.58622659 5.36095629 -3 8 C-5.97 7.505 -5.97 7.505 -9 7 C-8 6 -7 5 -6 4 C-4.9790625 2.9171875 -4.9790625 2.9171875 -3.9375 1.8125 C-2 0 -2 0 0 0 Z " fill="#00CB32" transform="translate(55,44)"/>
<path d="M0 0 C0.33 1.32 0.66 2.64 1 4 C-0.98 4.99 -2.96 5.98 -5 7 C-5 5.35 -5 3.7 -5 2 C-3.35 2 -1.7 2 0 2 C0 1.34 0 0.68 0 0 Z " fill="#E50019" transform="translate(48,35)"/>
<path d="M0 0 C1.22589844 0.01353516 1.22589844 0.01353516 2.4765625 0.02734375 C3.41628906 0.04474609 3.41628906 0.04474609 4.375 0.0625 C4.375 0.7225 4.375 1.3825 4.375 2.0625 C2.91864629 2.28424933 1.45977044 2.48948698 0 2.6875 C-0.81210937 2.80351563 -1.62421875 2.91953125 -2.4609375 3.0390625 C-3.17507812 3.04679687 -3.88921875 3.05453125 -4.625 3.0625 C-5.285 2.4025 -5.945 1.7425 -6.625 1.0625 C-4.21954362 -0.14022819 -2.67503047 -0.03821472 0 0 Z " fill="#058970" transform="translate(43.625,34.9375)"/>
<path d="M0 0 C0.99 0 1.98 0 3 0 C1.91072362 3.26782914 1.31652071 3.81937333 -1.375 5.75 C-1.98085938 6.19859375 -2.58671875 6.6471875 -3.2109375 7.109375 C-5 8 -5 8 -8 7 C-7.50628906 6.66226563 -7.01257813 6.32453125 -6.50390625 5.9765625 C-5.86324219 5.53054687 -5.22257812 5.08453125 -4.5625 4.625 C-3.92441406 4.18414062 -3.28632813 3.74328125 -2.62890625 3.2890625 C-0.86259072 2.07839147 -0.86259072 2.07839147 0 0 Z " fill="#0011EE" transform="translate(24,44)"/>
<path d="M0 0 C0.99 0 1.98 0 3 0 C3 0.66 3 1.32 3 2 C6.465 1.505 6.465 1.505 10 1 C8.79296875 2.55078125 8.79296875 2.55078125 7 4 C4.73828125 3.85546875 4.73828125 3.85546875 2.3125 3.1875 C1.10013672 2.86845703 1.10013672 2.86845703 -0.13671875 2.54296875 C-1.05904297 2.27419922 -1.05904297 2.27419922 -2 2 C-1.34 1.34 -0.68 0.68 0 0 Z " fill="#001CE2" transform="translate(42,55)"/>
<path d="M0 0 C0 0.99 0 1.98 0 3 C-1.98 3.33 -3.96 3.66 -6 4 C-6 3.01 -6 2.02 -6 1 C-4 0 -4 0 0 0 Z " fill="#BA0044" transform="translate(56,40)"/>
<path d="M0 0 C-0.33 0.99 -0.66 1.98 -1 3 C-1.99 3.33 -2.98 3.66 -4 4 C-4.66 3.34 -5.32 2.68 -6 2 C-6 1.34 -6 0.68 -6 0 C-3.50907189 -1.24546405 -2.58919267 -0.7767578 0 0 Z " fill="#00A15C" transform="translate(48,51)"/>
</svg>
